<svg width="45" height="56" viewBox="0 0 45 56" fill="none" xmlns="http://www.w3.org/2000/svg">
<path d="M30.5629 46.6869C30.5629 48.8252 29.7135 50.8758 28.2015 52.3878C26.6895 53.8998 24.6388 54.7492 22.5006 54.7492C20.3623 54.7492 18.3116 53.8998 16.7996 52.3878C15.2876 50.8758 14.4382 48.8252 14.4382 46.6869M24.4382 9.07061L20.4984 9.06255C11.5116 9.04105 3.70991 16.3429 3.64809 25.1873V35.3727C3.64809 37.4958 3.37935 39.5678 2.22106 41.3335L1.44976 42.5106C0.27534 44.295 1.53844 46.6869 3.64809 46.6869H41.3531C43.4627 46.6869 44.7231 44.295 43.5514 42.5106L42.7801 41.3335C41.6245 39.5678 41.3531 37.4931 41.3531 35.37V25.19C41.2456 16.3429 33.4251 9.09211 24.4382 9.07061V9.07061Z" stroke="#12A940" stroke-width="2" stroke-linecap="round" stroke-linejoin="round"/>
<path d="M22.5004 1C23.9259 1 25.293 1.56628 26.301 2.57427C27.309 3.58226 27.8753 4.94939 27.8753 6.37491V9.06236H17.1255V6.37491C17.1255 4.94939 17.6918 3.58226 18.6998 2.57427C19.7078 1.56628 21.0749 1 22.5004 1Z" stroke="#12A940" stroke-width="2" stroke-linecap="round" stroke-linejoin="round"/>
</svg>
