<svg width="51" height="51" viewBox="0 0 51 51" fill="none" xmlns="http://www.w3.org/2000/svg">
<g clip-path="url(#clip0_166_2849)">
<path d="M41.7917 0H9.20833C4.12271 0 0 4.12271 0 9.20833V41.7917C0 46.8773 4.12271 51 9.20833 51H41.7917C46.8773 51 51 46.8773 51 41.7917V9.20833C51 4.12271 46.8773 0 41.7917 0Z" fill="#008561"/>
<mask id="mask0_166_2849" style="mask-type:luminance" maskUnits="userSpaceOnUse" x="7" y="9" width="37" height="33">
<path d="M43.7232 9.5625H7.2251V41.4375H43.7232V9.5625Z" fill="white"/>
</mask>
<g mask="url(#mask0_166_2849)">
<path d="M31.2165 19.1445C31.21 19.8823 31.0561 20.6114 30.7635 21.2887C30.471 21.9661 30.0459 22.5781 29.5133 23.0887C28.3356 24.2639 26.6275 24.5486 26.6275 25.5584C26.6275 26.9137 28.8174 26.5 30.8953 28.5902C31.9595 29.6371 32.6864 30.9781 32.983 32.4411C33.2796 33.9041 33.1322 35.4223 32.5598 36.801C31.9873 38.1796 31.016 39.3557 29.7704 40.1784C28.5248 41.0011 27.0618 41.4327 25.569 41.418C24.0768 41.4322 22.6145 41.0004 21.3694 40.1778C20.1243 39.3553 19.1534 38.1795 18.581 36.8014C18.0087 35.4232 17.8612 33.9056 18.1572 32.443C18.4532 30.9804 19.1795 29.6396 20.2428 28.5926C22.3329 26.5025 24.5009 26.9161 24.5009 25.5608C24.5009 24.5608 22.7976 24.2664 21.6175 23.0911C20.8177 22.3252 20.2661 21.337 20.0339 20.2542C19.8016 19.1715 19.8995 18.0439 20.3148 17.0173C20.73 15.9908 21.4437 15.1124 22.3635 14.4957C23.2832 13.8789 24.3668 13.5522 25.4742 13.5578C26.063 13.5578 26.5934 13.6454 27.0339 13.6454C27.8271 13.6454 28.2504 13.2926 28.2504 12.733C28.2504 12.4094 28.102 12.003 28.102 11.5577C28.1097 11.0621 28.3141 10.5899 28.67 10.2449C28.8462 10.0741 29.0544 9.93968 29.2826 9.84929C29.5108 9.75891 29.7545 9.71436 29.9999 9.71825C30.2453 9.72208 30.4875 9.77421 30.7128 9.87161C30.9381 9.96907 31.1419 10.11 31.3128 10.2862C31.4835 10.4624 31.618 10.6706 31.7084 10.8988C31.7987 11.127 31.8432 11.3707 31.8394 11.6161C31.8394 12.7037 30.9854 13.2025 30.3382 13.441C29.8101 13.6162 29.3965 13.8522 29.3965 14.3827C29.3965 15.3778 31.2214 16.3512 31.2214 19.1445H31.2165ZM30.6325 33.9189C30.6325 30.9991 28.484 28.651 25.5715 28.651C22.6589 28.651 20.5104 31.0064 20.5104 33.9189C20.5104 36.8314 22.6589 39.1844 25.5715 39.1844C28.484 39.1844 30.6325 36.7973 30.6325 33.9189ZM28.8952 19.0763C28.8818 18.4215 28.6754 17.7852 28.3018 17.2473C27.9283 16.7094 27.4042 16.2936 26.7954 16.0523C26.1866 15.811 25.5201 15.7547 24.8794 15.8907C24.2387 16.0266 23.6524 16.3487 23.1941 16.8165C22.7357 17.2842 22.4256 17.8769 22.3027 18.5202C22.1797 19.1635 22.2495 19.8288 22.5031 20.4326C22.7567 21.0364 23.183 21.5519 23.7284 21.9145C24.2738 22.277 24.9141 22.4705 25.569 22.4707C26.4576 22.4585 27.3054 22.0962 27.9282 21.4623C28.551 20.8286 28.8985 19.9746 28.8952 19.086V19.0763Z" fill="white"/>
</g>
</g>
<defs>
<clipPath id="clip0_166_2849">
<rect width="51" height="51" fill="white"/>
</clipPath>
</defs>
</svg>
